<svg width="262" height="90" viewBox="0 0 262 90" fill="none" xmlns="http://www.w3.org/2000/svg">
<path d="M190.229 81.5768L190.504 80.6591C191.133 80.6591 191.688 80.7596 192.169 80.9606C192.65 81.1616 193.021 81.4413 193.283 81.7997C193.554 82.158 193.69 82.5819 193.69 83.0714C193.69 83.5695 193.55 84.0109 193.27 84.3955C192.991 84.7801 192.593 85.0816 192.077 85.3001C191.57 85.5099 190.963 85.6147 190.255 85.6147H187.738V76.9882H190.425C190.958 76.9882 191.426 77.0756 191.828 77.2504C192.23 77.4165 192.545 77.6568 192.772 77.9715C193.008 78.2861 193.126 78.6532 193.126 79.0727C193.126 79.4049 193.052 79.7239 192.903 80.0298C192.755 80.3269 192.545 80.5935 192.274 80.8295C192.012 81.0567 191.706 81.2403 191.356 81.3801C191.006 81.5112 190.631 81.5768 190.229 81.5768ZM188.773 80.5542H190.412C190.762 80.5542 191.046 80.4493 191.264 80.2395C191.492 80.0298 191.605 79.7457 191.605 79.3874C191.605 79.064 191.5 78.7799 191.291 78.5352C191.09 78.2817 190.709 78.155 190.15 78.155H189.258V84.4479H190.517C191.033 84.4479 191.417 84.3256 191.671 84.0808C191.924 83.8361 192.051 83.4996 192.051 83.0714C192.051 82.6431 191.902 82.3066 191.605 82.0619C191.317 81.8084 190.827 81.6817 190.137 81.6817H188.773V80.5542ZM199.573 85.7852C198.725 85.7852 197.974 85.5973 197.318 85.2214C196.663 84.8369 196.147 84.3125 195.771 83.6482C195.395 82.9752 195.208 82.2148 195.208 81.367C195.208 80.6678 195.33 80.0385 195.575 79.4791C195.819 78.9198 196.156 78.4434 196.584 78.0501C197.021 77.6568 197.515 77.3553 198.066 77.1455C198.625 76.927 199.215 76.8178 199.835 76.8178C200.675 76.8178 201.417 77.01 202.064 77.3946C202.72 77.7704 203.231 78.2905 203.598 78.9547C203.974 79.619 204.162 80.3794 204.162 81.2359C204.162 81.9351 204.039 82.5644 203.795 83.1238C203.55 83.6832 203.214 84.1639 202.785 84.5659C202.366 84.9592 201.881 85.2608 201.33 85.4705C200.779 85.6803 200.194 85.7852 199.573 85.7852ZM199.875 84.579C200.39 84.579 200.836 84.4523 201.212 84.1988C201.588 83.9454 201.876 83.587 202.077 83.1238C202.278 82.6606 202.379 82.1187 202.379 81.4981C202.379 80.7727 202.248 80.1521 201.986 79.6365C201.732 79.1208 201.387 78.7231 200.95 78.4434C200.522 78.1637 200.041 78.0239 199.508 78.0239C199.018 78.0239 198.586 78.1506 198.21 78.4041C197.843 78.6488 197.554 79.0028 197.345 79.466C197.143 79.9293 197.043 80.4755 197.043 81.1048C197.043 81.8215 197.17 82.4421 197.423 82.9665C197.685 83.4821 198.031 83.8798 198.459 84.1595C198.887 84.4392 199.359 84.579 199.875 84.579ZM210.155 85.7852C209.307 85.7852 208.555 85.5973 207.9 85.2214C207.244 84.8369 206.729 84.3125 206.353 83.6482C205.977 82.9752 205.789 82.2148 205.789 81.367C205.789 80.6678 205.911 80.0385 206.156 79.4791C206.401 78.9198 206.737 78.4434 207.166 78.0501C207.603 77.6568 208.096 77.3553 208.647 77.1455C209.206 76.927 209.796 76.8178 210.417 76.8178C211.256 76.8178 211.999 77.01 212.646 77.3946C213.301 77.7704 213.812 78.2905 214.18 78.9547C214.555 79.619 214.743 80.3794 214.743 81.2359C214.743 81.9351 214.621 82.5644 214.376 83.1238C214.131 83.6832 213.795 84.1639 213.367 84.5659C212.947 84.9592 212.462 85.2608 211.911 85.4705C211.361 85.6803 210.775 85.7852 210.155 85.7852ZM210.456 84.579C210.972 84.579 211.418 84.4523 211.793 84.1988C212.169 83.9454 212.458 83.587 212.659 83.1238C212.86 82.6606 212.96 82.1187 212.96 81.4981C212.96 80.7727 212.829 80.1521 212.567 79.6365C212.314 79.1208 211.968 78.7231 211.531 78.4434C211.103 78.1637 210.622 78.0239 210.089 78.0239C209.6 78.0239 209.167 78.1506 208.791 78.4041C208.424 78.6488 208.136 79.0028 207.926 79.466C207.725 79.9293 207.624 80.4755 207.624 81.1048C207.624 81.8215 207.751 82.4421 208.005 82.9665C208.267 83.4821 208.612 83.8798 209.04 84.1595C209.469 84.4392 209.941 84.579 210.456 84.579ZM221.916 85.6147L218.35 81.2097L221.549 76.9882H223.529L219.687 81.4588L219.818 80.7115L224.276 85.6147H221.916ZM216.934 85.6147V76.9882H218.547V85.6147H216.934ZM225.75 85.6147V76.9882H227.468V85.6147H225.75ZM230.287 85.6147V76.9882H231.585L231.808 85.6147H230.287ZM237.249 85.6147H236.593L230.812 78.0895L230.838 76.9882H231.913L237.209 83.8711L237.249 85.6147ZM237.944 76.9882V85.6147H236.646L236.423 76.9882H237.944ZM244.976 85.7852C243.98 85.7852 243.119 85.606 242.393 85.2477C241.668 84.8806 241.109 84.3736 240.715 83.7269C240.331 83.0801 240.138 82.3284 240.138 81.4719C240.138 80.7989 240.261 80.1784 240.505 79.6102C240.75 79.0421 241.091 78.5527 241.528 78.1419C241.974 77.7224 242.494 77.399 243.088 77.1717C243.691 76.9358 244.351 76.8178 245.068 76.8178C245.557 76.8178 246.064 76.8833 246.589 77.0144C247.113 77.1368 247.576 77.3378 247.978 77.6175L247.244 79.1252C246.816 78.7056 246.374 78.4216 245.92 78.273C245.474 78.1244 245.068 78.0501 244.701 78.0501C244.115 78.0501 243.617 78.1856 243.206 78.4565C242.795 78.7187 242.481 79.0902 242.262 79.5709C242.044 80.0429 241.934 80.5891 241.934 81.2097C241.934 81.874 242.07 82.4595 242.341 82.9665C242.621 83.4734 243.01 83.8711 243.508 84.1595C244.006 84.4392 244.591 84.579 245.264 84.579C245.623 84.579 245.981 84.5441 246.34 84.4742C246.698 84.3955 247.03 84.2644 247.336 84.0808L246.484 85.0641V82.4421H244.976V81.2359H248.031V85.0772C247.734 85.2345 247.415 85.3657 247.074 85.4705C246.733 85.5754 246.383 85.6541 246.025 85.7065C245.675 85.759 245.326 85.7852 244.976 85.7852ZM253.965 83.4909C253.965 83.2549 253.896 83.0495 253.756 82.8747C253.616 82.6999 253.428 82.5426 253.192 82.4027C252.965 82.2629 252.716 82.1274 252.445 81.9963C252.174 81.8652 251.898 81.7254 251.619 81.5768C251.348 81.4282 251.094 81.2578 250.858 81.0655C250.631 80.8732 250.448 80.646 250.308 80.3838C250.168 80.1215 250.098 79.8113 250.098 79.4529C250.098 78.8936 250.229 78.4216 250.491 78.037C250.762 77.6437 251.116 77.3422 251.553 77.1324C251.999 76.9226 252.488 76.8178 253.022 76.8178C253.354 76.8178 253.721 76.8571 254.123 76.9358C254.525 77.0144 254.883 77.1324 255.198 77.2897L254.621 78.7843C254.35 78.5483 254.035 78.3691 253.677 78.2468C253.319 78.1157 252.995 78.0501 252.707 78.0501C252.436 78.0501 252.222 78.1026 252.065 78.2074C251.907 78.3123 251.794 78.4434 251.724 78.6008C251.662 78.7493 251.632 78.8936 251.632 79.0334C251.632 79.2432 251.702 79.4267 251.842 79.584C251.981 79.7413 252.165 79.8899 252.392 80.0298C252.628 80.1609 252.886 80.292 253.166 80.4231C253.445 80.5542 253.721 80.6984 253.992 80.8557C254.271 81.013 254.525 81.1966 254.752 81.4064C254.988 81.6074 255.176 81.8434 255.316 82.1143C255.456 82.3765 255.526 82.6912 255.526 83.0582C255.526 83.6526 255.381 84.1551 255.093 84.5659C254.805 84.968 254.424 85.2739 253.952 85.4836C253.489 85.6847 252.982 85.7852 252.432 85.7852C251.863 85.7852 251.339 85.7021 250.858 85.5361C250.378 85.37 249.984 85.1777 249.678 84.9592L250.478 83.5827C250.802 83.8536 251.169 84.0808 251.579 84.2644C251.99 84.4392 252.392 84.5266 252.786 84.5266C253.126 84.5266 253.406 84.4348 253.625 84.2513C253.852 84.0677 253.965 83.8143 253.965 83.4909Z" fill="white"/>
<path d="M33.8599 26.529C34.3329 25.7981 34.9456 24.9596 35.698 24.0137C36.472 23.0678 37.3426 22.1219 38.3101 21.1759C39.2775 20.2085 40.3309 19.2948 41.4703 18.4349C42.6312 17.575 43.8352 16.8763 45.0821 16.3388C43.7922 16.0163 42.4163 15.7691 40.9544 15.5971C39.4925 15.4251 37.9231 15.3391 36.2462 15.3391C33.9674 15.3391 31.7746 15.5004 29.6677 15.8228C27.5609 16.1453 25.6045 16.6398 23.7987 17.3062C21.9928 17.9727 20.3482 18.8326 18.8648 19.886C17.4029 20.9179 16.1453 22.1648 15.0918 23.6267C14.0384 25.0886 13.2215 26.7655 12.641 28.6574C12.0821 30.5492 11.8026 32.6668 11.8026 35.0101C11.8026 35.7411 11.8348 36.5043 11.8993 37.2997C11.9853 38.0951 12.1573 38.8798 12.4153 39.6538C12.6733 40.4062 13.0388 41.1264 13.5117 41.8143C13.9847 42.5023 14.6189 43.0935 15.4143 43.588L14.9951 44.2652C13.0603 43.3407 11.6306 42.1046 10.7062 40.5567C9.78175 38.9873 9.31954 36.945 9.31954 34.4297C9.31954 31.3769 9.98599 28.6036 11.3189 26.1098C12.6518 23.616 14.5006 21.4877 16.8655 19.7248C19.2303 17.9404 22.0466 16.5645 25.3143 15.5971C28.6036 14.6082 32.1938 14.1137 36.085 14.1137C40.1267 14.1137 43.7169 14.6404 46.8557 15.6938C50.0159 16.7258 52.671 18.2092 54.8208 20.144C56.9921 22.0574 58.6368 24.3577 59.7547 27.045C60.8941 29.7323 61.4638 32.7205 61.4638 36.0098C61.4638 38.0521 61.2488 40.0622 60.8189 42.0401C60.3889 44.0179 59.7869 45.9205 59.013 47.7479C58.2605 49.5753 57.3469 51.3166 56.272 52.972C55.2185 54.6059 54.0576 56.1108 52.7892 57.4867C51.5208 58.8625 50.1127 60.1524 48.5648 61.3564C47.0169 62.5388 45.3078 63.5707 43.4374 64.4521C41.5886 65.3336 39.5892 66.0215 37.4394 66.516C35.2896 67.0319 32.9785 67.2899 30.5062 67.2899C29.0013 67.2899 27.5716 67.2039 26.2172 67.0319C24.8629 66.8599 23.5944 66.6342 22.412 66.3547C21.2511 66.0967 20.187 65.8173 19.2195 65.5163C18.2736 65.1938 17.4459 64.8928 16.7365 64.6134C15.1671 65.5163 13.5332 66.1827 11.8348 66.6127C10.158 67.0427 8.37361 67.2577 6.48175 67.2577C5.14886 67.2577 4.06319 67.1609 3.22475 66.9674C2.38632 66.7954 1.73062 66.5482 1.25765 66.2257C0.78469 65.9248 0.451466 65.5808 0.25798 65.1938C0.0859934 64.8068 0 64.4199 0 64.0329C0 63.259 0.247231 62.6463 0.741693 62.1948C1.25765 61.7433 1.9026 61.3994 2.67655 61.1629C3.45049 60.9049 4.28892 60.7437 5.19185 60.6792C6.11628 60.5932 6.98697 60.5502 7.8039 60.5502C9.56677 60.5502 11.2006 60.6684 12.7055 60.9049C14.2319 61.1199 15.6938 61.4423 17.0912 61.8723C17.7576 61.1199 18.4241 60.2384 19.0905 59.228C19.7785 58.1961 20.4772 57.0029 21.1866 55.6485C21.8961 54.2941 22.627 52.7678 23.3795 51.0694C24.1534 49.371 24.9596 47.4684 25.798 45.3616C26.8085 42.8248 27.6791 40.6534 28.4101 38.8476C29.141 37.0202 29.7645 35.4723 30.2804 34.2039C30.7964 32.914 31.2264 31.8499 31.5703 31.0114C31.9358 30.173 32.2475 29.485 32.5055 28.9476C32.7635 28.3886 32.9892 27.9372 33.1827 27.5932C33.3977 27.2277 33.6234 26.873 33.8599 26.529ZM57.3361 33.8815C57.3361 29.2808 56.4224 25.5723 54.5951 22.7561C52.7892 19.9183 50.0159 17.8974 46.2752 16.6935C45.6948 16.9945 45.1251 17.3385 44.5661 17.7254C44.0071 18.1124 43.4804 18.5316 42.986 18.9831C42.4915 19.4346 42.0293 19.9075 41.5993 20.402C41.1909 20.8964 40.8254 21.3802 40.5029 21.8531C40.2449 22.2186 39.9977 22.6271 39.7612 23.0785C39.5247 23.53 39.256 24.0782 38.955 24.7232C38.6755 25.3681 38.3531 26.142 37.9876 27.045C37.6436 27.9479 37.2352 29.0336 36.7622 30.302C36.2892 31.5489 35.741 33.0108 35.1176 34.6876C34.4941 36.3645 33.7847 38.2994 32.9892 40.4922C30.9684 45.9743 28.8508 50.5319 26.6365 54.1652C24.4221 57.7984 22.0466 60.6469 19.5098 62.7108C20.3267 63.0117 21.2189 63.345 22.1863 63.7104C23.1537 64.0544 24.1964 64.3769 25.3143 64.6779C26.4322 64.9788 27.6039 65.2261 28.8293 65.4195C30.0762 65.613 31.3769 65.7098 32.7312 65.7098C34.8596 65.7098 36.8052 65.4625 38.5681 64.9681C40.3309 64.4521 41.9325 63.7534 43.3729 62.872C44.8348 61.9906 46.1462 60.9694 47.3071 59.8085C48.4895 58.6261 49.5537 57.3684 50.4996 56.0355C51.5316 54.5521 52.4667 52.9397 53.3052 51.1984C54.1436 49.4355 54.8638 47.5974 55.4658 45.6841C56.0677 43.7707 56.5299 41.8251 56.8524 39.8472C57.1749 37.8479 57.3361 35.8593 57.3361 33.8815ZM6.70749 66.0967C8.31986 66.0967 9.78175 65.957 11.0932 65.6775C12.4046 65.3765 13.6622 64.7853 14.8661 63.9039C14.4361 63.7749 13.8342 63.6029 13.0603 63.3879C12.2863 63.1515 11.4371 62.9365 10.5127 62.743C9.60977 62.528 8.67459 62.3453 7.70716 62.1948C6.76123 62.0443 5.86905 61.9691 5.03062 61.9691C3.9342 61.9691 3.03127 62.1303 2.32182 62.4528C1.63388 62.7752 1.2899 63.3127 1.2899 64.0651C1.2899 64.3446 1.3544 64.6134 1.48339 64.8713C1.63388 65.1078 1.9026 65.3228 2.28958 65.5163C2.69804 65.6883 3.24625 65.828 3.9342 65.9355C4.64365 66.043 5.56807 66.0967 6.70749 66.0967ZM81.4573 66.6127C77.5661 66.6127 74.5671 65.6023 72.4602 63.5814C70.3534 61.5391 69.3 58.5078 69.3 54.4876C69.3 53.3912 69.3859 52.2303 69.5579 51.0049C69.7084 49.7795 69.9557 48.5218 70.2996 47.2319C71.0736 44.3512 72.1592 41.6854 73.5566 39.2345C74.9755 36.7837 76.5986 34.6661 78.426 32.8818C80.2534 31.0974 82.2205 29.7 84.3273 28.6896C86.4341 27.6792 88.5517 27.174 90.6801 27.174C92.8299 27.174 94.5175 27.6792 95.7429 28.6896C96.9898 29.7 97.6133 31.1189 97.6133 32.9463C97.6133 33.9782 97.4091 34.9886 97.0006 35.9775C96.5921 36.9665 96.0009 37.9016 95.227 38.7831C94.453 39.6645 93.5179 40.4922 92.4214 41.2661C91.3465 42.0186 90.1319 42.6743 88.7775 43.2332C87.1006 43.9427 85.2517 44.4801 83.2309 44.8456C81.21 45.1896 78.9097 45.3616 76.3299 45.3616C75.7065 47.1029 75.212 48.9196 74.8465 50.8114C74.5026 52.6818 74.3306 54.5951 74.3306 56.5515C74.3306 59.5397 74.954 61.7003 76.2009 63.0332C77.4693 64.3446 79.4579 65.0003 82.1667 65.0003C84.424 65.0003 86.5739 64.5704 88.6162 63.7104C90.6586 62.829 92.5504 61.6788 94.2918 60.2599C96.0332 58.841 97.624 57.2287 99.0644 55.4228C100.505 53.5954 101.762 51.7358 102.837 49.844L104.514 46.8772L105.385 47.4899L103.708 50.4567C102.375 52.8 100.913 54.9606 99.3224 56.9384C97.753 58.9163 96.0332 60.6254 94.1628 62.0658C92.3139 63.4847 90.3253 64.6026 88.197 65.4195C86.0902 66.215 83.8436 66.6127 81.4573 66.6127ZM91.583 28.4639C90.2286 28.4639 88.842 28.8616 87.4231 29.657C86.0257 30.4525 84.6713 31.5596 83.3599 32.9785C82.0485 34.3759 80.8231 36.0313 79.6837 37.9446C78.5442 39.858 77.5553 41.9433 76.7169 44.2007C79.0817 44.1577 81.1026 43.9534 82.7794 43.588C84.4563 43.201 85.9182 42.7173 87.1651 42.1368C88.154 41.6854 89.1107 41.1049 90.0351 40.3955C90.981 39.6645 91.8087 38.8368 92.5182 37.9124C93.2491 36.988 93.8296 35.9883 94.2595 34.9134C94.711 33.8385 94.9367 32.7205 94.9367 31.5596C94.9367 30.9792 94.8508 30.4955 94.6788 30.1085C94.5068 29.7215 94.2703 29.4098 93.9693 29.1733C93.6683 28.9153 93.3136 28.7326 92.9052 28.6251C92.4967 28.5176 92.056 28.4639 91.583 28.4639ZM117.671 10.7922H122.476L108.061 50.3599C107.761 51.1984 107.46 52.0583 107.159 52.9397C106.858 53.7997 106.589 54.6596 106.352 55.5196C106.137 56.358 105.955 57.1749 105.804 57.9704C105.675 58.7443 105.611 59.4645 105.611 60.1309C105.611 61.6143 105.998 62.7967 106.772 63.6782C107.567 64.5596 108.792 65.0003 110.448 65.0003C111.888 65.0003 113.275 64.6886 114.608 64.0651C115.962 63.4417 117.295 62.5065 118.606 61.2596C119.939 59.9912 121.272 58.4111 122.605 56.5192C123.938 54.6059 125.325 52.3808 126.765 49.844L128.442 46.8772L129.313 47.4899L127.636 50.4567C126.066 53.23 124.561 55.6378 123.121 57.6801C121.702 59.701 120.273 61.3779 118.832 62.7108C117.413 64.0222 115.962 65.0003 114.479 65.6453C112.995 66.2902 111.415 66.6127 109.738 66.6127C108.427 66.6127 107.266 66.4085 106.256 66C105.267 65.613 104.439 65.0541 103.773 64.3231C103.085 63.5922 102.569 62.7108 102.225 61.6788C101.881 60.6469 101.709 59.4967 101.709 58.2283C101.709 57.1104 101.838 55.8958 102.096 54.5844C102.354 53.2515 102.751 51.8433 103.289 50.3599L117.671 10.7922ZM135.343 27.7867H140.116L131.892 50.3599C131.591 51.1984 131.29 52.0583 130.989 52.9397C130.689 53.7997 130.42 54.6596 130.183 55.5196C129.968 56.358 129.786 57.1749 129.635 57.9704C129.506 58.7443 129.442 59.4645 129.442 60.1309C129.442 61.6143 129.839 62.7967 130.635 63.6782C131.43 64.5596 132.645 65.0003 134.279 65.0003C135.719 65.0003 137.117 64.6886 138.471 64.0651C139.825 63.4417 141.158 62.5065 142.47 61.2596C143.803 59.9912 145.135 58.4111 146.468 56.5192C147.801 54.6274 149.177 52.4023 150.596 49.844L152.176 47.0062L159.206 27.7867H163.979L155.756 50.3599C155.455 51.1984 155.154 52.0583 154.853 52.9397C154.552 53.7997 154.283 54.6596 154.046 55.5196C153.831 56.358 153.649 57.1749 153.498 57.9704C153.369 58.7443 153.305 59.4645 153.305 60.1309C153.305 61.6143 153.692 62.7967 154.466 63.6782C155.261 64.5596 156.487 65.0003 158.142 65.0003C159.582 65.0003 160.969 64.6886 162.302 64.0651C163.656 63.4417 164.989 62.5065 166.301 61.2596C167.633 59.9912 168.966 58.4111 170.299 56.5192C171.632 54.6059 173.019 52.3808 174.459 49.844L176.136 46.8772L176.974 47.4899L175.33 50.4567C173.782 53.2515 172.288 55.67 170.847 57.7124C169.429 59.7332 167.999 61.4101 166.559 62.743C165.14 64.0544 163.678 65.0326 162.173 65.6775C160.689 66.301 159.109 66.6127 157.432 66.6127C156.121 66.6127 154.96 66.4085 153.95 66C152.961 65.613 152.122 65.0541 151.434 64.3231C150.768 63.5922 150.263 62.7108 149.919 61.6788C149.575 60.6469 149.403 59.4967 149.403 58.2283C149.403 57.3899 149.478 56.487 149.629 55.5196C149.779 54.5306 150.005 53.5202 150.306 52.4883C148.865 54.9176 147.479 57.0244 146.146 58.8088C144.813 60.5717 143.48 62.0336 142.147 63.1945C140.814 64.3554 139.438 65.2153 138.019 65.7743C136.622 66.3332 135.139 66.6127 133.569 66.6127C132.258 66.6127 131.097 66.4085 130.087 66C129.098 65.613 128.27 65.0541 127.603 64.3231C126.916 63.5922 126.4 62.7108 126.056 61.6788C125.712 60.6469 125.54 59.4967 125.54 58.2283C125.54 57.1104 125.679 55.885 125.959 54.5521C126.217 53.2192 126.604 51.8218 127.12 50.3599L135.343 27.7867ZM205.127 66.6127C203.407 66.6127 201.956 66.387 200.773 65.9355C199.591 65.4625 198.623 64.7961 197.871 63.9362C197.118 63.0547 196.549 61.9906 196.162 60.7437C195.775 59.4967 195.517 58.0994 195.388 56.5515C194.592 57.9704 193.743 59.2925 192.84 60.5179C191.959 61.7433 190.991 62.8075 189.938 63.7104C188.906 64.6134 187.777 65.3228 186.552 65.8388C185.348 66.3547 184.037 66.6127 182.618 66.6127C181.736 66.6127 180.909 66.4945 180.135 66.258C179.382 66.0215 178.716 65.6883 178.135 65.2583C177.576 64.8068 177.136 64.2694 176.813 63.6459C176.491 63.0225 176.33 62.3238 176.33 61.5498C176.33 60.5394 176.598 59.744 177.136 59.1635C177.673 58.5616 178.393 58.2606 179.296 58.2606C180.049 58.2606 180.618 58.4648 181.005 58.8733C181.392 59.2818 181.586 59.83 181.586 60.5179C181.586 61.2489 181.392 61.8401 181.005 62.2915C180.618 62.7215 180.145 62.9365 179.587 62.9365C179.35 62.9365 179.157 62.9042 179.006 62.8397C178.856 62.7537 178.716 62.7108 178.587 62.7108C178.372 62.7108 178.264 62.8505 178.264 63.13C178.264 63.4309 178.372 63.7212 178.587 64.0007C178.802 64.2586 179.081 64.4951 179.425 64.7101C179.769 64.9036 180.156 65.0648 180.586 65.1938C181.038 65.3013 181.489 65.355 181.941 65.355C183.252 65.355 184.542 64.9466 185.81 64.1296C187.079 63.2912 188.272 62.1625 189.39 60.7437C190.508 59.3248 191.54 57.6909 192.486 55.842C193.431 53.9717 194.238 51.9938 194.904 49.9085C195.592 47.8231 196.13 45.7056 196.516 43.5557C196.903 41.3844 197.097 39.299 197.097 37.2997C197.097 35.9883 197.011 34.7951 196.839 33.7202C196.667 32.6238 196.398 31.6886 196.033 30.9147C195.667 30.1192 195.194 29.5065 194.614 29.0766C194.055 28.6466 193.367 28.4316 192.55 28.4316C191.475 28.4316 190.4 28.8186 189.325 29.5925C188.272 30.345 187.175 31.4414 186.036 32.8818C184.897 34.3007 183.693 36.042 182.424 38.1059C181.156 40.1697 179.78 42.5023 178.297 45.1036L176.588 48.1026L175.749 47.5222L177.458 44.4909C178.963 41.8036 180.339 39.3958 181.586 37.2674C182.854 35.1176 184.09 33.301 185.294 31.8176C186.52 30.3127 187.767 29.1626 189.035 28.3671C190.303 27.5717 191.712 27.174 193.259 27.174C194.377 27.174 195.356 27.4104 196.194 27.8834C197.054 28.3349 197.763 29.0658 198.322 30.0762C198.903 31.0652 199.344 32.3551 199.645 33.9459C199.945 35.5153 200.107 37.4072 200.128 39.6215C201.139 37.7297 202.214 36.0205 203.353 34.4942C204.492 32.9678 205.664 31.6671 206.868 30.5922C208.093 29.4958 209.351 28.6574 210.641 28.0769C211.952 27.4749 213.274 27.174 214.607 27.174C215.403 27.174 216.187 27.2922 216.961 27.5287C217.735 27.7437 218.413 28.0661 218.993 28.4961C219.595 28.9261 220.079 29.4635 220.444 30.1085C220.81 30.7319 220.992 31.4414 220.992 32.2368C220.992 33.2473 220.713 34.0534 220.154 34.6554C219.616 35.2359 218.896 35.5261 217.993 35.5261C217.262 35.5261 216.693 35.3218 216.284 34.9134C215.897 34.5049 215.704 33.9567 215.704 33.2688C215.704 32.5593 215.897 31.9788 216.284 31.5274C216.671 31.0759 217.144 30.8502 217.703 30.8502C217.94 30.8502 218.122 30.8932 218.251 30.9792C218.402 31.0437 218.563 31.0759 218.735 31.0759C218.886 31.0759 218.972 31.0437 218.993 30.9792C219.015 30.8932 219.025 30.7749 219.025 30.6245C219.025 30.345 218.918 30.0762 218.703 29.8183C218.488 29.5388 218.198 29.3023 217.832 29.1088C217.488 28.8938 217.09 28.7326 216.639 28.6251C216.209 28.4961 215.758 28.4316 215.285 28.4316C214.038 28.4316 212.78 28.8401 211.512 29.657C210.265 30.474 209.061 31.5811 207.9 32.9785C206.76 34.3759 205.686 35.999 204.675 37.8479C203.665 39.6968 202.783 41.6639 202.031 43.7492C201.3 45.813 200.719 47.9414 200.289 50.1342C199.859 52.3055 199.645 54.4124 199.645 56.4547C199.645 57.7231 199.752 58.884 199.967 59.9375C200.182 60.9694 200.547 61.8616 201.063 62.614C201.579 63.3665 202.257 63.9577 203.095 64.3876C203.933 64.7961 204.976 65.0003 206.223 65.0003C207.642 65.0003 209.082 64.7316 210.544 64.1941C212.006 63.6567 213.489 62.786 214.994 61.5821C216.521 60.3782 218.069 58.8195 219.638 56.9062C221.229 54.9713 222.852 52.6173 224.507 49.844L226.281 46.8772L227.087 47.4899L225.346 50.4567C223.497 53.531 221.756 56.1108 220.122 58.1961C218.509 60.2599 216.897 61.9153 215.285 63.1622C213.694 64.4091 212.071 65.3013 210.415 65.8388C208.76 66.3547 206.997 66.6127 205.127 66.6127ZM237.342 66.6127C233.451 66.6127 230.452 65.6023 228.345 63.5814C226.238 61.5391 225.185 58.5078 225.185 54.4876C225.185 53.3912 225.271 52.2303 225.443 51.0049C225.593 49.7795 225.84 48.5218 226.184 47.2319C226.958 44.3512 228.044 41.6854 229.441 39.2345C230.86 36.7837 232.483 34.6661 234.311 32.8818C236.138 31.0974 238.105 29.7 240.212 28.6896C242.319 27.6792 244.436 27.174 246.565 27.174C248.714 27.174 250.402 27.6792 251.628 28.6896C252.874 29.7 253.498 31.1189 253.498 32.9463C253.498 33.9782 253.294 34.9886 252.885 35.9775C252.477 36.9665 251.885 37.9016 251.112 38.7831C250.338 39.6645 249.402 40.4922 248.306 41.2661C247.231 42.0186 246.016 42.6743 244.662 43.2332C242.985 43.9427 241.136 44.4801 239.115 44.8456C237.095 45.1896 234.794 45.3616 232.215 45.3616C231.591 47.1029 231.097 48.9196 230.731 50.8114C230.387 52.6818 230.215 54.5951 230.215 56.5515C230.215 59.5397 230.839 61.7003 232.086 63.0332C233.354 64.3446 235.343 65.0003 238.051 65.0003C240.309 65.0003 242.458 64.5704 244.501 63.7104C246.543 62.829 248.435 61.6788 250.176 60.2599C251.918 58.841 253.509 57.2287 254.949 55.4228C256.389 53.5954 257.647 51.7358 258.722 49.844L260.399 46.8772L261.27 47.4899L259.593 50.4567C258.26 52.8 256.798 54.9606 255.207 56.9384C253.638 58.9163 251.918 60.6254 250.047 62.0658C248.199 63.4847 246.21 64.6026 244.082 65.4195C241.975 66.215 239.728 66.6127 237.342 66.6127ZM247.468 28.4639C246.113 28.4639 244.727 28.8616 243.308 29.657C241.91 30.4525 240.556 31.5596 239.244 32.9785C237.933 34.3759 236.708 36.0313 235.568 37.9446C234.429 39.858 233.44 41.9433 232.601 44.2007C234.966 44.1577 236.987 43.9534 238.664 43.588C240.341 43.201 241.803 42.7173 243.05 42.1368C244.039 41.6854 244.995 41.1049 245.92 40.3955C246.866 39.6645 247.693 38.8368 248.403 37.9124C249.134 36.988 249.714 35.9883 250.144 34.9134C250.596 33.8385 250.821 32.7205 250.821 31.5596C250.821 30.9792 250.735 30.4955 250.563 30.1085C250.391 29.7215 250.155 29.4098 249.854 29.1733C249.553 28.9153 249.198 28.7326 248.79 28.6251C248.381 28.5176 247.941 28.4639 247.468 28.4639Z" fill="white"/>
<line x1="4.09766" y1="82.8403" x2="182.561" y2="82.8403" stroke="white" stroke-width="0.819391"/>
</svg>
